<svg width="554" height="296" viewBox="0 0 554 296" xmlns="http://www.w3.org/2000/svg"><title>logo</title><path d="M80.605 290.018c18.085-3.74 19.33-18.23 19.035-31.52-.553-24.996-3.087-49.95-4.852-74.918-.252-3.556-.817-7.09-2.4-10.57 1.677 26.267 3.352 52.536 5.028 78.805-.98.11-1.958.217-2.937.326l-9.226-66.033c-4.26 5.97-7.704 11.432-11.782 16.372-8.46 10.248-18.08 18.908-32.39 19.51-14.98.634-26.492-7.462-33.165-23.21-9.303-21.957-9.165-44.605-4.688-67.502 3.388-17.325 7.614-34.3 18.42-48.944 11.017-14.93 24.64-24.27 43.997-22.757 8.402.657 16.857 1.057 25.16 2.38 3.658.583 6.996 3.176 10.477 4.858-2.623 2.92-4.746 6.67-7.96 8.61C83 81.644 74.185 89.274 67.863 99.57c-12.028 19.6-18.885 40.577-16.245 63.89.73 6.465 2.686 12.793 10.053 14.29 7.28 1.477 11.465-3.658 15.178-8.954 4.092-5.836 5.633-12.058 6.203-19.42 1.653-21.33 4.776-42.545 7.412-63.796.775-6.255 5.073-9.722 10.53-11.756 16.042-5.987 32.465-6.588 49.092-2.9 4.56 1.013 6.068 2.7 5.22 8.517-2.77 19.044-4.68 38.262-5.82 57.48-1.77 29.85-2.635 59.756-3.88 89.638-.745 17.94-5.626 34.668-15.025 49.97-11.346 18.475-35.844 21.76-49.977 13.49zm319.572-215c2.874 4.184 6.117 8.17 8.52 12.61 2.36 4.355 3.867 9.172 6.277 13.548.378-12.366-4.93-22.183-15.172-30.278 2.415-1.72 3.807-3.52 5.384-3.7 12.098-1.374 24.23-3.245 36.355-3.293 7.49-.03 12.867 7 12.89 16.687.04 17.053-1.27 34.107-1.923 51.163-.38 9.863-.864 19.736-.736 29.598.052 3.998 1.256 8.094 2.55 11.938 1.714 5.095 4.024 10.24 10.454 10.553 6.832.333 9.372-5.234 10.42-10.213 3.703-17.618 7.235-35.317 9.658-53.145 1.912-14.064 2.013-28.367 3.074-42.552.79-10.572 6.463-16.17 16.955-14.966 9.007 1.034 17.873 3.685 26.618 6.244 1.86.546 3.966 3.674 4.19 5.797.958 9.088 1.566 18.24 1.733 27.377.51 27.957.716 55.92 1.156 83.877.05 3.106.913 6.19 1.28 9.296.706 5.98 2.436 10.98 12.605 10.352-3.357 3.965-4.844 7.346-7.286 8.31-8.844 3.495-17.87 6.734-27.095 8.99-7.303 1.785-12.896-2.062-15.197-9.107-4.317-13.22-8.085-26.62-12.08-39.945-.48 1.448-1.024 3.598-1.89 5.61-4.37 10.145-7.716 20.94-13.474 30.24-13.254 21.404-48.027 20.556-61.72-.767-6.94-10.81-9.136-22.766-8.522-35.25.805-16.362 2.353-32.69 3.248-49.05.866-15.836-.09-31.39-9.522-45.12-.608-.885-.672-2.144-.987-3.23l2.24-1.57zm-27.953-8.18c-3.107-5.528-5.832-10.79-8.946-15.81-4.286-6.917-8.312-14.114-13.483-20.33-4.7-5.645-9.926-4.75-13.973 1.51-1.512 2.34-2.818 5.305-2.873 8.013-.286 13.93-.133 27.866-.133 41.862 10.77.577 20.584.817 30.34 1.706 9.337.852 10.91 4.568 9.53 13.84-.78 5.244-.213 10.127-3.425 15.247-2.473 3.945-4.742 5.57-8.86 5.59-6.92.032-13.836.01-20.234.01-1.015 20.058-1.325 38.606-3.037 57.022-2.315 24.91-6.972 49.245-23.563 69.484-8.557 10.44-18.384 19.14-31.013 24.217-2.946 1.184-6.276 1.412-11.228 2.46 1.173-3.697 1.353-5.857 2.425-7.395 11.86-17.004 15.36-36.577 15.207-56.447-.243-31.445-2.196-62.877-3.517-96.63l-33.863 6.857c4.967-10.72 14.92-14.72 24.595-18.66 5.23-2.132 6.305-4.91 6.01-10.292-.932-17.07-2.248-34.24-1.35-51.26 1.515-28.694 22.235-41.464 49.464-31.98 2.476.863 5.753.84 8.25.006 24.418-8.15 44.476 6.76 43.088 33.02-.448 8.468-3.615 16.804-5.735 25.15-.223.874-1.78 1.41-3.676 2.812zm-38.928-43.21c-9.905 1.1-17.725 19.195-14.522 33.21 4.364-9.98 9.54-21.82 14.522-33.21zm-115.44 35.107c.68.393.873.558 1.096.625 23.365 6.97 26.693 12.72 23.494 37.28-3.387 26.015-6.897 52.062-8.76 78.21-.852 11.974 2.286 24.208 3.142 36.356.12 1.748-2.044 4.74-3.792 5.367-16.33 5.858-38.267-4.3-42.026-21.076-3.82-17.056-5.37-34.68-7.07-52.138-1.936-19.907-2.83-39.912-4.43-59.854-.364-4.52-1.132-9.223-2.845-13.374-2.56-6.203.198-8.534 5.55-9.42 7.784-1.292 15.62-2.282 23.738-3.445 1.056-6.787-2.59-10.928-8.583-13.688-8.305-3.828-16.94-7.082-24.82-11.647-11.112-6.44-11.403-12.756-.948-20.323 27.225-19.7 61.89-11.386 81.47 9.578 8.316 8.903 5.347 19.15-6.123 23.27-5.63 2.022-11.6 3.44-17.534 4.155-6.402.773-10.263 3.574-11.56 10.122zm5.62 115.586c.54.07 1.08.137 1.62.205 1.847-24.102 3.696-48.204 5.545-72.306l-3.05-.185c-1.37 24.095-2.74 48.19-4.113 72.286zm109.82-150.693c-4.98 11.392-10.158 23.232-14.522 33.21-3.203-14.014 4.617-32.108 14.522-33.21z" fill="#FF9000"/></svg>
